<?xml version="1.0" standalone="no"?>
<!DOCTYPE svg PUBLIC "-//W3C//DTD SVG 20010904//EN"
 "http://www.w3.org/TR/2001/REC-SVG-20010904/DTD/svg10.dtd">
<svg version="1.0" xmlns="http://www.w3.org/2000/svg"
 width="242.000000pt" height="208.000000pt" viewBox="0 0 242.000000 208.000000"
 preserveAspectRatio="xMidYMid meet">
<g transform="translate(0.000000,208.000000) scale(0.100000,-0.100000)"
fill="#000000" stroke="none">
<path d="M1578 1993 c7 -3 16 -2 19 1 4 3 -2 6 -13 5 -11 0 -14 -3 -6 -6z"/>
<path d="M695 1979 c-16 -5 -43 -9 -60 -9 -70 1 -198 -9 -204 -16 -3 -4 14 -4
39 0 24 4 42 4 38 1 -3 -3 -37 -11 -74 -16 -37 -5 -71 -13 -74 -17 -3 -4 -15
-7 -27 -6 -13 1 -23 -3 -23 -9 0 -5 -8 -7 -17 -4 -10 2 -24 6 -32 8 -7 2 -15
-4 -16 -13 -2 -10 1 -18 6 -18 5 0 9 5 9 10 0 6 5 10 10 10 19 0 10 -19 -12
-26 -13 -4 -34 -15 -47 -25 -13 -10 -28 -16 -35 -12 -6 3 -8 3 -4 -2 4 -4 0
-14 -10 -22 -11 -9 -11 -12 -2 -7 8 4 5 -3 -8 -15 -12 -12 -22 -26 -22 -31 0
-6 -5 -9 -11 -8 -6 2 -13 -8 -15 -21 -3 -14 -8 -29 -13 -35 -5 -6 -18 -40 -29
-76 -11 -36 -24 -74 -28 -84 -5 -13 -4 -17 4 -12 8 4 8 -3 2 -25 -5 -18 -12
-95 -16 -173 -8 -188 -11 -665 -3 -660 3 2 6 -9 7 -24 1 -48 10 -121 17 -132
4 -6 1 -18 -6 -26 -10 -12 -9 -13 6 -8 15 6 17 3 11 -19 -4 -19 -1 -35 14 -55
11 -15 21 -39 22 -54 1 -15 5 -25 8 -23 3 2 12 -5 19 -17 7 -11 8 -17 2 -14
-5 4 -13 1 -17 -5 -4 -7 -3 -9 3 -6 14 9 65 -32 57 -45 -4 -7 -2 -8 4 -4 7 4
13 2 13 -3 1 -6 3 -15 4 -21 1 -5 3 -13 4 -16 0 -4 7 -2 14 4 9 8 17 8 27 0
12 -8 12 -9 -3 -4 -11 4 -16 2 -11 -5 3 -6 15 -8 26 -6 14 4 18 2 14 -9 -3 -8
-1 -12 4 -9 5 3 29 -4 52 -17 24 -12 47 -21 51 -20 4 1 34 -4 65 -12 144 -35
249 -41 787 -41 350 0 548 4 582 11 35 7 50 8 46 1 -4 -7 0 -8 13 -2 10 4 44
12 74 16 75 10 155 34 198 59 19 12 41 19 48 16 7 -3 16 -1 20 5 4 6 14 3 27
-8 22 -18 22 -18 4 3 -17 21 -17 22 23 64 22 23 40 37 38 30 -2 -7 4 -15 12
-17 9 -3 11 -1 5 4 -6 4 -10 13 -10 18 1 21 56 125 64 121 4 -3 6 9 4 27 -3
26 -1 28 6 12 7 -16 9 -14 9 15 -1 19 2 51 5 70 29 159 35 883 8 953 -8 20 -8
34 0 49 8 16 8 19 -1 13 -9 -5 -10 -1 -5 15 4 14 3 20 -3 16 -5 -3 -12 5 -14
19 -5 22 -3 24 11 13 11 -9 10 -6 -2 9 -12 14 -17 30 -13 45 3 13 3 17 0 10
-4 -9 -17 8 -35 44 -19 37 -26 61 -20 68 6 7 6 17 -1 26 -8 12 -9 12 -4 -2 6
-21 -9 -33 -21 -16 -4 7 -8 16 -8 20 0 3 -4 10 -9 15 -5 5 -6 2 -1 -6 6 -10 4
-12 -4 -7 -7 5 -10 15 -6 23 4 13 3 14 -10 3 -12 -10 -15 -9 -16 6 -1 11 -1
23 0 27 1 4 -7 3 -18 -2 -23 -13 -46 10 -37 36 5 15 3 15 -10 -2 -16 -20 -16
-20 -12 0 4 15 0 21 -13 21 -14 0 -16 -3 -6 -15 10 -12 9 -12 -13 0 -14 7 -27
14 -30 14 -3 1 -21 6 -40 12 -42 14 -110 27 -127 26 -7 0 -13 3 -13 7 0 5 -17
7 -37 4 -22 -2 -31 -1 -21 3 24 11 -91 14 -612 16 -250 1 -470 -1 -488 -5 -21
-5 -31 -4 -27 2 3 6 5 10 3 9 -2 0 -16 -5 -33 -10z m1100 -29 c222 -24 345
-64 429 -140 100 -93 139 -209 156 -475 18 -293 7 -685 -25 -835 -43 -206
-141 -306 -350 -358 -143 -36 -252 -44 -681 -49 -765 -9 -1010 28 -1147 175
-72 78 -105 170 -126 347 -14 114 -14 701 -1 820 45 395 192 498 750 525 209
11 863 3 995 -10z m415 -1744 c0 -2 -8 -10 -17 -17 -16 -13 -17 -12 -4 4 13
16 21 21 21 13z"/>
<path d="M483 1735 c0 -7 6 -11 14 -8 7 3 13 6 13 8 0 2 -6 5 -13 8 -8 3 -14
-1 -14 -8z"/>
<path d="M1655 1728 c-54 -19 -62 -33 -69 -119 -8 -90 2 -117 53 -143 16 -9
31 -24 33 -34 7 -24 46 -32 89 -18 31 10 35 16 47 71 21 94 26 170 12 194 -27
51 -98 72 -165 49z m130 -38 c24 -23 29 -66 13 -118 -9 -30 -12 -55 -17 -119
-1 -18 -6 -21 -27 -17 -14 3 -23 1 -20 -5 3 -5 -3 -7 -14 -4 -20 5 -46 40 -42
55 1 5 -1 7 -6 7 -4 -1 -10 0 -14 1 -5 1 -12 3 -18 4 -5 0 -10 5 -10 9 1 4 -7
15 -16 24 -11 11 -14 26 -10 46 3 16 6 46 6 67 0 32 5 42 33 59 39 27 109 22
142 -9z"/>
<path d="M1660 1700 c-9 -6 -10 -10 -3 -10 6 0 15 5 18 10 8 12 4 12 -15 0z"/>
<path d="M1698 1703 c7 -3 16 -2 19 1 4 3 -2 6 -13 5 -11 0 -14 -3 -6 -6z"/>
<path d="M1791 1604 c0 -11 3 -14 6 -6 3 7 2 16 -1 19 -3 4 -6 -2 -5 -13z"/>
<path d="M585 1716 c-70 -30 -106 -109 -85 -186 11 -39 41 -67 60 -55 6 4 23
-7 39 -24 38 -41 95 -43 140 -5 26 21 31 33 31 69 0 26 6 47 15 55 21 17 19
35 -7 82 -38 68 -122 95 -193 64z m108 -15 c5 0 5 -6 1 -13 -5 -7 -3 -8 5 -4
7 5 19 0 27 -10 9 -11 12 -13 8 -5 -5 9 -3 12 4 7 7 -4 12 -14 12 -22 0 -8 5
-14 12 -14 6 0 9 -3 6 -6 -4 -3 -17 0 -30 6 -15 8 -12 2 11 -17 31 -27 32 -30
17 -45 -9 -9 -16 -22 -16 -28 0 -6 -4 -9 -8 -6 -4 2 -8 -5 -9 -17 0 -12 1 -16
4 -9 7 17 23 15 23 -3 0 -8 -4 -15 -10 -15 -5 0 -10 -5 -10 -11 0 -5 5 -7 10
-4 22 14 8 -6 -15 -21 -23 -15 -103 -39 -91 -27 2 3 -6 17 -20 32 -13 14 -22
33 -19 41 5 12 4 12 -6 3 -10 -10 -9 -16 4 -31 27 -29 20 -34 -8 -6 -14 14
-30 22 -35 19 -6 -3 -10 -1 -10 5 0 6 -6 8 -12 4 -7 -4 -10 -3 -5 1 4 5 1 18
-6 29 -21 34 -9 125 15 110 5 -3 8 1 6 10 -6 34 73 59 145 47z"/>
<path d="M655 1690 c-3 -6 1 -7 9 -4 18 7 21 14 7 14 -6 0 -13 -4 -16 -10z"/>
<path d="M1237 1649 c7 -7 15 -10 18 -7 3 3 -2 9 -12 12 -14 6 -15 5 -6 -5z"/>
<path d="M1167 1590 c-42 -50 -60 -106 -59 -191 0 -74 28 -152 68 -190 l24
-22 0 -354 0 -353 -105 0 c-58 0 -105 2 -105 4 0 7 -130 583 -141 624 -7 23
-9 45 -7 48 3 3 45 -18 92 -46 88 -52 128 -60 134 -28 4 21 -266 328 -289 328
-4 0 -23 -9 -41 -20 -40 -24 -69 -25 -129 -4 l-46 17 -105 -62 c-95 -55 -130
-91 -90 -91 9 0 12 3 9 7 -10 9 52 45 65 37 7 -5 8 -2 3 6 -6 9 -1 10 16 5 16
-4 20 -3 11 3 -10 7 -5 14 23 31 20 12 41 19 46 15 5 -3 8 0 7 8 -2 9 5 12 22
10 14 -1 33 -4 42 -5 9 0 14 -5 12 -9 -3 -4 18 -8 45 -8 29 0 51 5 51 11 0 5
4 8 9 4 5 -3 12 -1 16 5 3 5 14 8 25 7 25 -4 51 -27 43 -40 -3 -6 -1 -7 6 -3
6 4 14 0 17 -8 3 -9 10 -13 15 -10 8 5 11 -3 8 -23 0 -3 6 -10 15 -15 9 -5 14
-13 11 -17 -2 -5 5 -17 18 -27 l22 -19 -19 23 c-11 12 -14 22 -9 22 6 0 23
-16 37 -35 15 -19 24 -35 20 -35 -4 0 1 -9 11 -20 9 -10 21 -18 25 -17 4 1 7
-2 7 -8 -1 -5 -7 -9 -13 -7 -7 1 -15 -1 -18 -6 -3 -5 10 -8 28 -7 27 2 35 -3
43 -26 10 -26 9 -27 -7 -16 -10 6 -16 15 -13 21 3 5 1 6 -6 2 -6 -4 -18 -2
-26 4 -8 7 -15 9 -15 4 0 -4 -10 2 -23 14 -13 12 -28 19 -32 15 -5 -5 -3 1 5
11 14 18 14 19 -7 7 -13 -6 -23 -7 -23 -2 0 5 6 12 13 14 6 3 -3 3 -22 0 -22
-4 -32 -2 -28 4 4 6 -3 8 -18 5 -14 -2 -27 -8 -30 -12 -3 -5 5 -6 17 -4 13 2
17 2 10 -2 -18 -8 -37 -45 -19 -39 12 5 14 0 20 -59 1 -13 5 -22 10 -19 4 2 7
-8 6 -24 -1 -15 8 -62 20 -103 11 -41 18 -83 15 -93 -4 -14 -3 -17 6 -12 9 6
11 -2 8 -29 -2 -20 -1 -36 2 -36 3 0 12 -28 19 -62 7 -35 16 -67 19 -73 4 -5
7 -21 8 -35 1 -14 7 -43 13 -64 5 -22 8 -43 6 -46 -6 -10 8 -11 128 -17 l107
-4 0 -65 c0 -56 2 -65 17 -62 14 2 16 14 14 66 l-2 62 110 0 111 0 0 -36 c0
-49 16 -74 46 -74 40 0 64 19 86 66 l19 45 315 -3 c293 -3 314 -2 314 15 0 16
-21 17 -310 17 -170 0 -310 1 -310 3 2 27 62 202 72 208 7 5 26 9 41 9 23 0
31 6 40 30 6 16 14 30 17 30 3 0 39 -34 80 -76 125 -126 165 -135 244 -52 96
103 127 148 116 169 -15 28 -45 24 -115 -16 l-62 -34 -22 23 -22 24 36 22 c47
29 46 33 -40 232 -35 84 -63 153 -61 156 2 2 55 -6 116 -18 100 -20 113 -21
127 -7 8 8 12 23 9 33 -6 18 -265 181 -303 190 -14 4 -25 -9 -48 -51 -16 -30
-32 -55 -36 -55 -4 0 -17 16 -29 35 -12 19 -26 35 -31 35 -19 0 -60 -50 -53
-63 6 -8 3 -8 -9 1 -9 8 -21 29 -27 48 -6 19 -17 34 -23 34 -11 0 -251 -272
-270 -306 -10 -17 8 -44 29 -44 7 0 57 29 111 64 54 35 99 58 101 52 2 -10
-120 -614 -134 -658 -5 -16 -19 -18 -120 -18 l-114 0 0 357 0 357 29 31 c60
62 79 198 41 296 -20 53 -64 109 -86 109 -7 0 -28 -18 -47 -40z m58 12 c6 -4
10 -11 11 -17 0 -5 10 -31 23 -58 31 -66 37 -132 17 -199 -9 -30 -23 -61 -31
-68 -13 -11 -15 6 -15 148 0 132 -3 161 -15 166 -12 4 -15 -20 -17 -167 l-3
-172 -25 45 c-20 37 -25 59 -25 125 0 69 4 89 30 142 31 65 33 67 50 55z m690
-232 c10 -11 22 -17 28 -13 6 4 7 1 2 -7 -6 -9 -4 -12 6 -8 8 3 21 -2 29 -10
13 -14 12 -15 -1 -10 -9 4 -16 1 -16 -7 0 -8 7 -11 15 -7 9 3 13 1 9 -5 -5 -8
3 -10 23 -7 18 3 30 1 30 -6 0 -6 4 -9 9 -6 5 3 14 -1 21 -9 7 -8 16 -12 21
-10 4 3 11 0 16 -8 4 -7 20 -18 35 -24 16 -7 25 -18 23 -26 -6 -13 -42 -17
-60 -6 -12 8 -106 23 -122 20 -12 -2 -17 11 -14 31 0 4 -6 5 -13 2 -9 -3 -12
-12 -9 -21 4 -10 2 -14 -4 -10 -6 4 -16 1 -22 -7 -11 -13 -10 -23 6 -63 3 -10
7 -20 8 -23 7 -21 20 -46 25 -50 14 -11 49 -121 44 -138 -4 -13 -3 -14 4 -4 7
11 10 9 15 -7 3 -12 4 -32 3 -45 -2 -16 1 -23 9 -19 7 2 16 -1 21 -8 4 -8 3
-10 -5 -5 -6 4 -14 0 -17 -8 -3 -9 -10 -16 -16 -16 -5 0 -6 6 -2 13 4 6 4 9 0
5 -4 -3 -8 -10 -8 -15 1 -4 -6 -15 -14 -25 -14 -14 -13 -19 13 -48 27 -31 29
-31 58 -16 17 9 39 16 50 16 17 0 18 2 5 11 -13 9 -12 10 2 5 10 -3 20 -1 24
5 3 6 12 8 20 5 8 -3 14 -1 14 4 0 6 4 10 9 10 5 0 8 -8 6 -17 -1 -10 -8 -17
-15 -15 -6 1 -9 -2 -6 -7 7 -11 -47 -71 -64 -71 -6 0 -8 -5 -5 -10 4 -6 -5
-23 -19 -37 -14 -14 -26 -30 -26 -35 0 -5 -9 -6 -20 -3 -12 4 -20 2 -20 -5 0
-6 -5 -8 -12 -3 -7 4 -16 8 -20 8 -3 0 -10 4 -15 9 -4 5 -3 6 4 2 6 -3 14 -2
17 3 7 10 -13 9 -31 -2 -6 -4 -15 -2 -19 4 -5 8 -3 9 7 4 8 -4 3 3 -11 16 -14
14 -27 24 -29 22 -5 -4 -30 29 -31 41 0 5 8 2 18 -5 15 -13 16 -12 3 4 -11 14
-17 15 -30 5 -9 -7 -13 -8 -9 -4 8 9 -31 43 -44 39 -4 -2 -5 4 -2 12 4 8 10
12 15 9 15 -9 10 3 -8 17 -14 12 -16 12 -9 0 6 -9 5 -12 -5 -9 -8 3 -13 11
-11 17 1 7 -2 10 -8 6 -6 -3 -7 -11 -4 -17 5 -8 1 -9 -12 -4 -10 4 -15 4 -12
0 11 -10 -35 -53 -62 -58 -14 -2 -26 -5 -27 -5 -2 -1 -6 0 -9 2 -4 1 -11 -8
-15 -21 -6 -15 -13 -21 -21 -16 -10 6 -10 4 0 -8 8 -10 9 -18 3 -22 -6 -4 -7
-14 -4 -23 5 -12 3 -14 -7 -8 -8 5 -11 4 -7 -2 3 -5 -1 -36 -9 -67 -8 -32 -13
-65 -9 -74 4 -12 2 -12 -8 -4 -14 12 -27 6 -27 -12 0 -6 5 -4 10 4 8 12 10 12
10 -5 -1 -11 -7 -29 -15 -39 -12 -16 -18 -17 -27 -8 -9 9 -18 6 -38 -13 l-26
-25 1 33 c0 17 -3 39 -7 49 -5 10 -3 18 6 21 7 3 18 19 24 37 7 20 8 28 1 24
-5 -3 -3 10 5 29 8 20 12 38 9 41 -7 7 16 103 33 135 8 14 13 46 12 69 -1 27
4 47 12 52 7 5 10 17 7 31 -3 13 0 40 7 60 7 20 12 51 11 68 -1 16 1 28 5 26
14 -8 21 104 8 124 -11 18 -36 18 -48 0 -7 -10 -71 -47 -102 -60 -16 -6 -25
-15 -22 -20 3 -5 -3 -6 -12 -2 -11 4 -15 2 -11 -4 10 -17 -20 -24 -33 -8 -9
11 -7 16 8 24 11 6 22 7 26 3 4 -3 4 1 0 11 -3 10 -1 17 6 17 6 0 8 5 4 13 -5
8 -2 7 9 -2 10 -8 20 -11 24 -7 3 3 0 6 -8 6 -11 0 -11 2 1 10 12 8 13 10 1
10 -10 0 -7 8 9 25 13 14 31 24 39 23 9 -2 16 4 16 13 0 15 26 50 80 112 24
26 42 37 30 17 -3 -5 -1 -10 5 -10 6 0 8 -10 4 -24 -6 -26 10 -44 22 -25 4 8
3 9 -4 5 -7 -4 -12 -2 -12 3 0 14 17 14 25 0 4 -6 13 -8 20 -5 8 3 16 0 19 -7
3 -7 3 -2 1 10 -3 12 0 25 6 29 8 5 10 2 5 -7 -4 -8 0 -5 8 5 13 16 19 17 28
8 7 -7 8 -12 4 -12 -5 0 2 -8 15 -19 25 -20 65 -22 61 -3 -3 15 45 92 57 92 4
0 16 -9 26 -20z m105 -54 c0 -3 -4 -8 -10 -11 -5 -3 -10 -1 -10 4 0 6 5 11 10
11 6 0 10 -2 10 -4z m-793 -90 c0 -7 -7 -12 -16 -11 -9 2 -18 4 -21 4 -6 2 23
21 31 21 3 0 6 -6 6 -14z m-246 -53 c13 -16 12 -17 -3 -4 -10 7 -18 15 -18 17
0 8 8 3 21 -13z m566 -405 c-3 -8 -6 -5 -6 6 -1 11 2 17 5 13 3 -3 4 -12 1
-19z m-322 -297 c3 -5 1 -12 -5 -16 -5 -3 -10 1 -10 9 0 18 6 21 15 7z m314
-80 c8 -14 7 -20 -5 -25 -10 -4 -13 -2 -8 7 5 8 2 7 -9 -2 -25 -20 -34 -5 -12
19 22 24 22 24 34 1z"/>
<path d="M1875 1370 c-3 -6 1 -7 9 -4 18 7 21 14 7 14 -6 0 -13 -4 -16 -10z"/>
<path d="M1596 1322 c-2 -4 0 -14 6 -22 8 -12 9 -12 5 2 -3 9 -1 19 6 22 9 3
9 5 0 5 -6 1 -14 -3 -17 -7z"/>
<path d="M1480 1155 c-11 -13 -10 -14 4 -9 9 3 16 10 16 15 0 13 -6 11 -20 -6z"/>
<path d="M1391 1091 c-8 -5 -9 -11 -3 -15 5 -3 12 1 16 9 6 17 6 18 -13 6z"/>
<path d="M1581 823 c-10 -26 -10 -27 4 -9 8 11 15 23 15 28 0 15 -7 8 -19 -19z"/>
<path d="M1605 649 c-11 -16 -1 -19 13 -3 7 8 8 14 3 14 -5 0 -13 -5 -16 -11z"/>
<path d="M2011 624 c0 -11 3 -14 6 -6 3 7 2 16 -1 19 -3 4 -6 -2 -5 -13z"/>
<path d="M2040 630 c-9 -6 -10 -10 -3 -10 6 0 15 5 18 10 8 12 4 12 -15 0z"/>
<path d="M1515 459 c-4 -6 -5 -12 -2 -15 2 -3 7 2 10 11 7 17 1 20 -8 4z"/>
<path d="M1960 1436 c0 -2 7 -7 16 -10 8 -3 12 -2 9 4 -6 10 -25 14 -25 6z"/>
<path d="M920 1355 c0 -7 30 -13 34 -7 3 4 -4 9 -15 9 -10 1 -19 0 -19 -2z"/>
<path d="M817 1289 c7 -7 15 -10 18 -7 3 3 -2 9 -12 12 -14 6 -15 5 -6 -5z"/>
<path d="M287 1240 c-47 -30 -60 -56 -32 -66 16 -6 180 22 223 37 12 5 22 6
22 4 0 -3 -38 -82 -85 -175 l-85 -170 47 -51 c46 -49 46 -50 27 -69 -19 -18
-20 -18 -84 25 -36 24 -75 44 -87 45 -25 0 -43 -26 -35 -50 9 -25 88 -125 127
-158 71 -63 109 -56 208 37 63 60 75 67 96 60 13 -5 53 -13 89 -17 l66 -7 33
-100 c18 -55 33 -101 33 -102 0 -2 -148 -3 -330 -3 -308 0 -330 -1 -330 -17 0
-17 22 -18 338 -15 l339 3 17 -46 c26 -68 81 -88 112 -40 19 29 11 82 -12 82
-8 0 -13 -6 -10 -14 3 -7 1 -13 -5 -13 -6 0 -7 -5 -4 -10 4 -6 10 -8 15 -5 4
3 7 -2 6 -10 -3 -19 -6 -21 -38 -29 -23 -5 -25 -3 -20 16 3 13 1 19 -5 15 -5
-3 -17 9 -26 28 -9 19 -22 35 -28 35 -8 0 -8 4 -1 13 7 8 6 19 -3 37 -7 13
-10 31 -7 39 4 10 1 12 -8 6 -10 -6 -11 -2 -6 21 5 21 4 25 -4 14 -8 -13 -10
-12 -10 5 0 11 -7 41 -17 67 -12 34 -23 48 -39 51 -15 3 -21 0 -17 -7 5 -8 3
-8 -8 0 -8 5 -32 12 -53 13 -22 2 -51 7 -64 12 -18 7 -31 5 -49 -6 -14 -9 -30
-14 -37 -12 -9 4 -12 -4 -11 -23 1 -22 -2 -26 -17 -22 -15 4 -16 7 -6 21 12
14 11 15 -5 2 -12 -10 -15 -17 -7 -25 5 -5 10 -14 10 -20 0 -5 -3 -7 -6 -4 -3
3 -16 -5 -30 -19 -23 -23 -52 -24 -38 -1 4 7 2 8 -5 4 -6 -4 -9 -12 -6 -17 4
-5 3 -10 -2 -10 -40 -7 -55 -4 -66 11 -7 10 -15 17 -19 16 -4 0 -16 9 -27 21
-18 19 -18 23 -5 34 8 6 13 17 11 23 -2 6 3 16 10 21 12 9 11 11 -6 11 -11 0
-18 -3 -15 -7 2 -4 -5 -11 -17 -14 -19 -7 -20 -7 -2 -21 15 -12 15 -13 1 -8
-21 7 -51 51 -43 64 3 5 0 12 -6 16 -8 5 -9 3 -4 -6 5 -8 4 -11 -3 -7 -11 7
-5 44 9 52 4 3 11 0 15 -6 4 -8 3 -9 -4 -5 -18 11 -14 0 5 -15 14 -12 16 -12
9 0 -6 9 -5 12 3 10 7 -3 12 -9 12 -14 0 -9 27 -24 39 -21 3 0 18 -9 34 -22
27 -21 30 -21 47 -6 16 14 21 15 36 3 16 -13 17 -12 4 4 -10 12 -11 21 -3 30
8 10 7 17 -6 28 -9 9 -30 30 -45 48 l-29 33 24 26 c15 18 17 22 4 12 -18 -14
-19 -14 -5 10 7 14 14 30 14 35 1 6 6 9 13 8 7 -2 9 4 5 14 -5 11 -3 14 6 8
10 -5 11 -2 7 12 -4 12 -1 25 9 33 8 7 15 19 15 27 0 8 4 12 9 8 5 -3 13 0 17
6 4 8 3 9 -4 5 -16 -9 -15 7 0 22 7 7 8 12 3 12 -5 0 6 15 24 34 26 27 31 38
23 52 -5 11 -7 24 -5 31 3 7 -4 10 -19 6 -23 -5 -23 -5 -3 10 19 14 17 15 -17
4 -24 -8 -33 -14 -25 -20 7 -4 -2 -7 -23 -6 -19 1 -48 -3 -64 -10 -22 -9 -32
-9 -43 0 -11 10 -13 10 -11 -1 2 -7 -2 -14 -9 -17 -6 -2 -11 2 -9 9 4 27 17
36 49 33 26 -3 28 -2 14 6 -9 6 -15 14 -12 20 11 17 -11 9 -58 -21z m228 -69
c-3 -6 -11 -11 -17 -11 -6 0 -6 6 2 15 14 17 26 13 15 -4z m-205 -471 c0 -5
-2 -10 -4 -10 -3 0 -8 5 -11 10 -3 6 -1 10 4 10 6 0 11 -4 11 -10z"/>
<path d="M398 1263 c7 -3 16 -2 19 1 4 3 -2 6 -13 5 -11 0 -14 -3 -6 -6z"/>
<path d="M536 1221 c-3 -5 1 -11 9 -14 9 -4 12 -1 8 9 -6 16 -10 17 -17 5z"/>
<path d="M925 1200 c-3 -5 -1 -10 4 -10 6 0 11 5 11 10 0 6 -2 10 -4 10 -3 0
-8 -4 -11 -10z"/>
<path d="M2216 1158 c3 -5 10 -6 15 -3 13 9 11 12 -6 12 -8 0 -12 -4 -9 -9z"/>
<path d="M520 1141 c0 -6 4 -13 10 -16 6 -3 7 1 4 9 -7 18 -14 21 -14 7z"/>
<path d="M811 1074 c0 -11 3 -14 6 -6 3 7 2 16 -1 19 -3 4 -6 -2 -5 -13z"/>
<path d="M982 983 c-4 -10 -7 -46 -6 -80 1 -81 38 -157 106 -218 66 -59 82
-56 86 13 7 114 -34 211 -114 272 -45 34 -62 37 -72 13z m101 -87 c30 -39 57
-124 57 -180 l0 -40 -45 44 c-68 67 -90 123 -86 218 1 21 2 22 25 6 14 -8 36
-30 49 -48z"/>
<path d="M1381 960 c-58 -42 -97 -108 -110 -185 -11 -62 -6 -141 9 -150 15 -9
91 56 125 108 43 65 62 146 49 207 -5 24 -14 45 -20 47 -6 2 -29 -10 -53 -27z
m40 -98 c-13 -63 -45 -124 -90 -166 l-31 -30 0 53 c0 78 18 127 69 183 38 43
46 47 54 33 6 -11 5 -37 -2 -73z"/>
<path d="M260 740 c-8 -5 -10 -10 -5 -10 6 0 17 5 25 10 8 5 11 10 5 10 -5 0
-17 -5 -25 -10z"/>
<path d="M891 684 c0 -11 3 -14 6 -6 3 7 2 16 -1 19 -3 4 -6 -2 -5 -13z"/>
<path d="M605 670 c3 -5 8 -10 11 -10 2 0 4 5 4 10 0 6 -5 10 -11 10 -5 0 -7
-4 -4 -10z"/>
<path d="M383 623 c-7 -3 -13 -8 -13 -13 0 -10 24 -7 28 4 5 11 -1 14 -15 9z"/>
<path d="M2120 590 c-9 -6 -10 -10 -3 -10 6 0 15 5 18 10 8 12 4 12 -15 0z"/>
<path d="M948 383 c7 -3 16 -2 19 1 4 3 -2 6 -13 5 -11 0 -14 -3 -6 -6z"/>
<path d="M2240 351 c0 -6 4 -13 10 -16 6 -3 7 1 4 9 -7 18 -14 21 -14 7z"/>
<path d="M1009 333 c-12 -16 -12 -17 2 -6 9 7 20 9 24 5 5 -4 5 -1 1 6 -9 16
-11 15 -27 -5z"/>
<path d="M2186 1877 c3 -10 9 -15 12 -12 3 3 0 11 -7 18 -10 9 -11 8 -5 -6z"/>
<path d="M109 1783 c-13 -16 -12 -17 4 -4 16 13 21 21 13 21 -2 0 -10 -8 -17
-17z"/>
<path d="M2385 1669 c-4 -6 -5 -12 -2 -15 2 -3 7 2 10 11 7 17 1 20 -8 4z"/>
<path d="M135 260 c6 -10 4 -12 -11 -6 -15 6 -17 5 -6 -5 9 -9 15 -10 23 -2 8
8 7 13 -2 18 -8 6 -10 4 -4 -5z"/>
<path d="M1995 100 c-3 -6 1 -7 9 -4 18 7 21 14 7 14 -6 0 -13 -4 -16 -10z"/>
</g>
</svg>
